{"title":"The.Ides.of.March.2011.BRRip.720p.x264.Feel-Free","uid":6895618,"size":2152392018,"categoryP":"video","categoryS":"hd___movies","magnet":"?xt=urn:btih:638d7c53e7f01a665aa2046dfaa894e177ef7069&amp;dn=The.Ides.of.March.2011.BRRip.720p.x264.Feel-Free&amp;tr=udp%3A%2F%2Ftracker.openbittorrent.com%3A80&amp;tr=udp%3A%2F%2Fopen.demonii.com%3A1337&amp;tr=udp%3A%2F%2Ftracker.coppersurfer.tk%3A6969&amp;tr=udp%3A%2F%2Fexodus.desync.com%3A6969","seeders":0,"leechers":0,"uploader":"rcbcsk","files":-1,"time":1324194823,"description":"Genre:Drama\nLanguage:English\nIMDb:http://www.imdb.com/title/tt1124035/\nSource:BluRay.720p.x264.DTS-HDChina Thanks!\n\nFormat : MPEG-4\nFormat profile : Base Media\nCodec ID : isom\nFile size : 2.00 GiB\nDuration : 1h 41mn\nOverall bit rate : 2 831 Kbps\n\nVideo\nID : 1\nFormat : AVC\nFormat/Info : Advanced Video Codec\nFormat profile : &lt;a class=&quot;__cf_email__&quot; href=&quot;/cdn-cgi/l/email-protection&quot; data-cfemail=&quot;95ddfcf2fdd5d9a0bba4&quot;&gt;[email&amp;#160;protected]&lt;/a&gt;&lt;script cf-hash='f9e31' type=&quot;text/javascript&quot;&gt;\n/* &lt;![CDATA[ */!function(){try{var t=&quot;currentScript&quot;in document?document.currentScript:function(){for(var t=document.getElementsByTagName(&quot;script&quot;),e=t.length;e--;)if(t[e].getAttribute(&quot;cf-hash&quot;))return t[e]}();if(t&amp;&amp;t.previousSibling){var e,r,n,i,c=t.previousSibling,a=c.getAttribute(&quot;data-cfemail&quot;);if(a){for(e=&quot;&quot;,r=parseInt(a.substr(0,2),16),n=2;a.length-n;n+=2)i=parseInt(a.substr(n,2),16)^r,e+=String.fromCharCode(i);e=document.createTextNode(e),c.parentNode.replaceChild(e,c)}}}catch(u){}}();/* ]]&gt; */&lt;/script&gt;\nFormat settings, CABAC : Yes\nFormat settings, ReFrames : 3 frames\nCodec ID : avc1\nCodec ID/Info : Advanced Video Coding\nDuration : 1h 41mn\nBit rate mode : Variable\nBit rate : 2 500 Kbps\nMaximum bit rate : 13.3 Mbps\nWidth : 1 280 pixels\nHeight : 528 pixels\nDisplay aspect ratio : 2.40:1\nFrame rate mode : Constant\nFrame rate : 23.976 fps\nColor space : YUV\nChroma subsampling : 4:2:0\nBit depth : 8 bits\nScan type : Progressive\nBits/(Pixel*Frame) : 0.154\nStream size : 1.74 GiB (87%)\nWriting library : x264\n\nAudio\nID : 2\nFormat : AAC\nFormat/Info : Advanced Audio Codec\nFormat version : Version 4\nFormat profile : LC\nFormat settings, SBR : No\nCodec ID : 40\nDuration : 1h 41mn\nBit rate mode : Variable\nBit rate : 363 Kbps\nMaximum bit rate : 556 Kbps\nChannel(s) : 6 channels\nChannel positions : Front: L C R, Side: L R, LFE\nSampling rate : 48.0 KHz\nStream size : 263 MiB (13%)\n\n\nPlot:\nAn idealistic staffer for a newbie presidential candidate gets a crash course on dirty politics during his stint on the campaign trail.\n\nScreens\n &lt;a href=&quot;\nhttp://img714.imageshack.us/img714/5509/vlcsnap00001lt.png&quot; rel=&quot;nofollow&quot; target=&quot;_NEW&quot;&gt;\nhttp://img714.imageshack.us/img714/5509/vlcsnap00001lt.png&lt;/a&gt;\n &lt;a href=&quot;\nhttp://img51.imageshack.us/img51/7651/vlcsnap00003w.png&quot; rel=&quot;nofollow&quot; target=&quot;_NEW&quot;&gt;\nhttp://img51.imageshack.us/img51/7651/vlcsnap00003w.png&lt;/a&gt;\n &lt;a href=&quot;\nhttp://img401.imageshack.us/img401/3269/vlcsnap00005z.png&quot; rel=&quot;nofollow&quot; target=&quot;_NEW&quot;&gt;\nhttp://img401.imageshack.us/img401/3269/vlcsnap00005z.png&lt;/a&gt;","torrent":{"xt":"urn:btih:638d7c53e7f01a665aa2046dfaa894e177ef7069","amp;dn":"The.Ides.of.March.2011.BRRip.720p.x264.Feel-Free","amp;tr":["udp%3A%2F%2Ftracker.openbittorrent.com%3A80","udp%3A%2F%2Fopen.demonii.com%3A1337","udp%3A%2F%2Ftracker.coppersurfer.tk%3A6969","udp%3A%2F%2Fexodus.desync.com%3A6969"],"infoHash":"638d7c53e7f01a665aa2046dfaa894e177ef7069","infoHashBuffer":{"type":"Buffer","data":[99,141,124,83,231,240,26,102,90,162,4,109,250,168,148,225,119,239,112,105]},"announce":[],"urlList":[]}}